<svg width="1801" height="320" viewBox="0 0 1801 320" fill="none" xmlns="http://www.w3.org/2000/svg">
<g clip-path="url(#clip0_2_19)">
<path d="M0 192L13.6326 170.7C27.2651 149 55.0306 107 81.2951 112C109.186 117 136.326 171 163.841 208C190.981 245 218.872 267 245.136 272C272.902 277 300.167 267 327.682 266.7C354.697 267 381.462 277 408.977 240C436.617 203 464.008 117 491.523 80C518.413 43 545.303 53 572.818 85.3C600.333 117 627.849 171 655.364 170.7C682.254 171 709.144 117 736.659 90.7C764.049 64 791.69 64 819.205 101.3C845.97 139 872.985 213 900.5 234.7C927.765 256 955.531 224 981.795 197.3C1009.69 171 1036.83 149 1064.34 144C1091.48 139 1119.37 149 1145.64 128C1173.4 107 1200.67 53 1228.18 58.7C1255.2 64 1281.96 128 1309.48 133.3C1337.12 139 1364.51 85 1392.02 96C1418.91 107 1445.8 181 1473.32 202.7C1500.83 224 1528.35 192 1555.86 154.7C1582.75 117 1609.64 75 1637.16 101.3C1664.55 128 1692.19 224 1719.7 256C1746.47 288 1773.48 256 1787.24 240L1801 224V320H1787.37C1773.73 320 1745.97 320 1719.7 320C1691.81 320 1664.67 320 1637.16 320C1610.02 320 1582.13 320 1555.86 320C1528.1 320 1500.83 320 1473.32 320C1446.3 320 1419.54 320 1392.02 320C1364.38 320 1336.99 320 1309.48 320C1282.59 320 1255.7 320 1228.18 320C1200.67 320 1173.15 320 1145.64 320C1118.75 320 1091.86 320 1064.34 320C1036.95 320 1009.31 320 981.795 320C955.03 320 928.015 320 900.5 320C873.235 320 845.469 320 819.205 320C791.314 320 764.174 320 736.659 320C709.519 320 681.628 320 655.364 320C627.598 320 600.333 320 572.818 320C545.803 320 519.038 320 491.523 320C463.883 320 436.492 320 408.977 320C382.087 320 355.197 320 327.682 320C300.167 320 272.651 320 245.136 320C218.246 320 191.356 320 163.841 320C136.451 320 108.81 320 81.2951 320C54.5303 320 27.5153 320 13.7576 320H0V192Z" fill="#7C95FF"/>
</g>
<defs>
<clipPath id="clip0_2_19">
<rect width="1801" height="320" fill="white"/>
</clipPath>
</defs>
</svg>
