<svg width="44" height="40" viewBox="0 0 44 40" fill="none" xmlns="http://www.w3.org/2000/svg">
<path d="M22 36.6667C19.4639 36.6667 17.0805 36.2292 14.85 35.3542C12.6194 34.4792 10.6792 33.2917 9.02916 31.7917C7.37916 30.2917 6.07291 28.5278 5.11041 26.5C4.14791 24.4722 3.66666 22.3056 3.66666 20C3.66666 17.6944 4.14791 15.5278 5.11041 13.5C6.07291 11.4722 7.37916 9.70833 9.02916 8.20833C10.6792 6.70833 12.6194 5.52083 14.85 4.64583C17.0805 3.77083 19.4639 3.33333 22 3.33333C24.5361 3.33333 26.9194 3.77083 29.15 4.64583C31.3805 5.52083 33.3208 6.70833 34.9708 8.20833C36.6208 9.70833 37.9271 11.4722 38.8896 13.5C39.8521 15.5278 40.3333 17.6944 40.3333 20C40.3333 22.3056 39.8521 24.4722 38.8896 26.5C37.9271 28.5278 36.6208 30.2917 34.9708 31.7917C33.3208 33.2917 31.3805 34.4792 29.15 35.3542C26.9194 36.2292 24.5361 36.6667 22 36.6667ZM6.41666 20H22V5.83333C17.6611 5.83333 13.9792 7.20572 10.9542 9.9505C7.92916 12.6953 6.41666 16.0451 6.41666 20Z" fill="black"/>
</svg>
