<svg width="1762" height="1259" viewBox="0 0 1762 1259" fill="none" xmlns="http://www.w3.org/2000/svg">
<ellipse cx="228" cy="178" rx="169" ry="178" fill="#FFB5FE"/>
<path d="M1612.5 957.5C1612.5 1013.56 1581.87 1056.5 1522.5 1056.5C1463.13 1056.5 1403 1057.56 1403 1001.5C1403 945.443 1401.63 885 1461 885C1520.37 885 1612.5 901.443 1612.5 957.5Z" fill="#AEA8E6"/>
<path d="M1762 312.447C1762 422.134 1633.92 287.108 1466.42 287.108C1298.91 287.108 1129 459.115 1129 349.429C1129 239.742 1183.87 57 1351.38 57C1518.88 57 1762 202.761 1762 312.447Z" fill="#FF0DAD"/>
<path d="M570.159 1220.48C570.159 1349.17 385.472 1110.98 213.159 1110.98C40.8459 1110.98 0.158691 1258.68 0.158691 1130C0.158691 1001.32 92.3459 830.484 264.659 830.484C436.972 830.484 570.159 1091.8 570.159 1220.48Z" fill="#A100FE"/>
</svg>
