<svg width="44" height="43" viewBox="0 0 44 43" fill="none" xmlns="http://www.w3.org/2000/svg">
<path d="M22.1833 31.9365C22.6722 31.9365 23.0847 31.7722 23.4208 31.4437C23.7569 31.1153 23.925 30.7122 23.925 30.2344C23.925 29.7566 23.7569 29.3535 23.4208 29.025C23.0847 28.6965 22.6722 28.5323 22.1833 28.5323C21.6944 28.5323 21.2819 28.6965 20.9458 29.025C20.6097 29.3535 20.4417 29.7566 20.4417 30.2344C20.4417 30.7122 20.6097 31.1153 20.9458 31.4437C21.2819 31.7722 21.6944 31.9365 22.1833 31.9365ZM20.5792 25.3969H23.2833C23.2833 24.6205 23.3826 23.9113 23.5813 23.2693C23.7799 22.6273 24.3986 21.8882 25.4375 21.0521C26.3847 20.2757 27.0569 19.5142 27.4542 18.7677C27.8514 18.0212 28.05 17.2 28.05 16.3042C28.05 14.7215 27.5229 13.4524 26.4688 12.4969C25.4146 11.5413 24.0167 11.0635 22.275 11.0635C20.7778 11.0635 19.4563 11.4293 18.3104 12.1609C17.1646 12.8925 16.3319 13.9003 15.8125 15.1844L18.2417 16.0802C18.5778 15.2441 19.0819 14.5946 19.7542 14.1318C20.4264 13.6689 21.2208 13.4375 22.1375 13.4375C23.1764 13.4375 24.0167 13.7137 24.6583 14.2661C25.3 14.8186 25.6208 15.5278 25.6208 16.3937C25.6208 17.0507 25.4222 17.6703 25.025 18.2526C24.6278 18.8349 24.0472 19.4396 23.2833 20.0667C22.3667 20.8431 21.6868 21.612 21.2438 22.3734C20.8007 23.1349 20.5792 24.1427 20.5792 25.3969ZM22 39.4167C19.4944 39.4167 17.1264 38.9464 14.8958 38.0057C12.6653 37.0651 10.7174 35.7811 9.05208 34.1536C7.38681 32.5262 6.07292 30.6226 5.11042 28.4427C4.14792 26.2628 3.66667 23.9486 3.66667 21.5C3.66667 19.0215 4.14792 16.6924 5.11042 14.5125C6.07292 12.3326 7.38681 10.4365 9.05208 8.82396C10.7174 7.21146 12.6653 5.93489 14.8958 4.99427C17.1264 4.05364 19.4944 3.58333 22 3.58333C24.5361 3.58333 26.9194 4.05364 29.15 4.99427C31.3806 5.93489 33.3208 7.21146 34.9708 8.82396C36.6208 10.4365 37.9271 12.3326 38.8896 14.5125C39.8521 16.6924 40.3333 19.0215 40.3333 21.5C40.3333 23.9486 39.8521 26.2628 38.8896 28.4427C37.9271 30.6226 36.6208 32.5262 34.9708 34.1536C33.3208 35.7811 31.3806 37.0651 29.15 38.0057C26.9194 38.9464 24.5361 39.4167 22 39.4167ZM22 36.7292C26.3389 36.7292 30.0208 35.2436 33.0458 32.2724C36.0708 29.3012 37.5833 25.7104 37.5833 21.5C37.5833 17.2597 36.0708 13.6615 33.0458 10.7052C30.0208 7.74896 26.3389 6.27083 22 6.27083C17.6917 6.27083 14.0174 7.74896 10.9771 10.7052C7.93681 13.6615 6.41667 17.2597 6.41667 21.5C6.41667 25.7104 7.93681 29.3012 10.9771 32.2724C14.0174 35.2436 17.6917 36.7292 22 36.7292Z" fill="black"/>
</svg>
