<svg width="28" height="30" viewBox="0 0 28 30" fill="none" xmlns="http://www.w3.org/2000/svg">
<path d="M25.4398 12.5519H24.5V12.5H14V17.5H20.5934C19.6315 20.4106 17.0468 22.5 14 22.5C10.1343 22.5 7.00001 19.1419 7.00001 15C7.00001 10.8581 10.1343 7.5 14 7.5C15.7844 7.5 17.4078 8.22125 18.6439 9.39937L21.9438 5.86375C19.8602 3.78312 17.073 2.5 14 2.5C7.55709 2.5 2.33334 8.09687 2.33334 15C2.33334 21.9031 7.55709 27.5 14 27.5C20.4429 27.5 25.6667 21.9031 25.6667 15C25.6667 14.1619 25.5862 13.3438 25.4398 12.5519Z" fill="#FBC02D"/>
<path d="M3.6785 9.18187L7.51158 12.1938C8.54875 9.4425 11.0606 7.5 14 7.5C15.7844 7.5 17.4078 8.22125 18.6439 9.39937L21.9438 5.86375C19.8602 3.78312 17.073 2.5 14 2.5C9.51883 2.5 5.63266 5.21062 3.6785 9.18187Z" fill="#E53935"/>
<path d="M14 27.5C17.0135 27.5 19.7517 26.2644 21.8219 24.255L18.2111 20.9813C17.0397 21.9319 15.5837 22.5 14 22.5C10.9655 22.5 8.38891 20.4269 7.41824 17.5338L3.61374 20.6744C5.54457 24.7225 9.46574 27.5 14 27.5Z" fill="#4CAF50"/>
<path d="M25.4398 12.5519L25.4304 12.5H24.5H14V17.5H20.5934C20.1314 18.8981 19.292 20.1037 18.2093 20.9819L18.2111 20.9806L21.8219 24.2544C21.5664 24.5031 25.6667 21.25 25.6667 15C25.6667 14.1619 25.5862 13.3438 25.4398 12.5519Z" fill="#1565C0"/>
</svg>
