<svg width="45" height="40" viewBox="0 0 45 40" fill="none" xmlns="http://www.w3.org/2000/svg">
<path d="M17.625 26.75L22.5 23.375L27.375 26.75L25.5 21.4167L30.0938 18H24.4688L22.5 12.9167L20.5312 18H14.9062L19.5 21.4167L17.625 26.75ZM6.5625 33.3333C5.75 33.3333 5.07812 33.0972 4.54688 32.625C4.01563 32.1528 3.75 31.5556 3.75 30.8333V24.4583C4.90625 24.2361 5.86719 23.7153 6.63281 22.8958C7.39844 22.0764 7.78125 21.1111 7.78125 20C7.78125 18.8889 7.39844 17.9167 6.63281 17.0833C5.86719 16.25 4.90625 15.7361 3.75 15.5417V9.16667C3.75 8.44445 4.01563 7.84722 4.54688 7.375C5.07812 6.90278 5.75 6.66667 6.5625 6.66667H38.4375C39.25 6.66667 39.9219 6.90278 40.4531 7.375C40.9844 7.84722 41.25 8.44445 41.25 9.16667V15.5417C40.0938 15.7361 39.1328 16.25 38.3672 17.0833C37.6016 17.9167 37.2188 18.8889 37.2188 20C37.2188 21.1111 37.6016 22.0764 38.3672 22.8958C39.1328 23.7153 40.0938 24.2361 41.25 24.4583V30.8333C41.25 31.5556 40.9844 32.1528 40.4531 32.625C39.9219 33.0972 39.25 33.3333 38.4375 33.3333H6.5625ZM6.5625 30.8333H38.4375V26.2917C37.25 25.5694 36.2812 24.6667 35.5312 23.5833C34.7812 22.5 34.4062 21.3056 34.4062 20C34.4062 18.6944 34.7812 17.5 35.5312 16.4167C36.2812 15.3333 37.25 14.4306 38.4375 13.7083V9.16667H6.5625V13.7083C7.78125 14.4306 8.75781 15.3333 9.49219 16.4167C10.2266 17.5 10.5938 18.6944 10.5938 20C10.5938 21.3056 10.2266 22.5 9.49219 23.5833C8.75781 24.6667 7.78125 25.5694 6.5625 26.2917V30.8333Z" fill="black"/>
</svg>
