<svg width="56" height="45" viewBox="0 0 56 45" fill="none" xmlns="http://www.w3.org/2000/svg">
<g clip-path="url(#clip0_1_20)">
<path d="M42 15H39.6666V11.25C39.6666 6.075 34.44 1.875 28 1.875C21.56 1.875 16.3333 6.075 16.3333 11.25V15H14C11.4333 15 9.33331 16.6875 9.33331 18.75V37.5C9.33331 39.5625 11.4333 41.25 14 41.25H42C44.5666 41.25 46.6666 39.5625 46.6666 37.5V18.75C46.6666 16.6875 44.5666 15 42 15ZM21 11.25C21 8.1375 24.1266 5.625 28 5.625C31.8733 5.625 35 8.1375 35 11.25V15H21V11.25ZM42 37.5H14V18.75H42V37.5ZM28 31.875C30.5666 31.875 32.6666 30.1875 32.6666 28.125C32.6666 26.0625 30.5666 24.375 28 24.375C25.4333 24.375 23.3333 26.0625 23.3333 28.125C23.3333 30.1875 25.4333 31.875 28 31.875Z" fill="black"/>
</g>
<defs>
<clipPath id="clip0_1_20">
<rect width="56" height="45" fill="white"/>
</clipPath>
</defs>
</svg>
