<svg width="42" height="43" viewBox="0 0 42 43" fill="none" xmlns="http://www.w3.org/2000/svg">
<g clip-path="url(#clip0_1_29)">
<path d="M21 10.5708C23.03 10.5708 24.675 12.255 24.675 14.3333C24.675 16.4117 23.03 18.0958 21 18.0958C18.97 18.0958 17.325 16.4117 17.325 14.3333C17.325 12.255 18.97 10.5708 21 10.5708ZM21 26.6958C26.1975 26.6958 31.675 29.3117 31.675 30.4583V32.4292H10.325V30.4583C10.325 29.3117 15.8025 26.6958 21 26.6958ZM21 7.16667C17.1325 7.16667 14 10.3737 14 14.3333C14 18.2929 17.1325 21.5 21 21.5C24.8675 21.5 28 18.2929 28 14.3333C28 10.3737 24.8675 7.16667 21 7.16667ZM21 23.2917C16.3275 23.2917 7 25.6925 7 30.4583V35.8333H35V30.4583C35 25.6925 25.6725 23.2917 21 23.2917Z" fill="black"/>
</g>
<defs>
<clipPath id="clip0_1_29">
<rect width="42" height="43" fill="white"/>
</clipPath>
</defs>
</svg>
