<svg width="24" height="25" viewBox="0 0 24 25" fill="none" xmlns="http://www.w3.org/2000/svg">
<g filter="url(#filter0_d_1_62)">
<path d="M11.0045 1.4214C11.1198 0.214855 12.8802 0.214852 12.9955 1.4214L13.3076 4.689C13.3726 5.3699 14.0868 5.78599 14.7112 5.50684L17.6158 4.20833C18.7267 3.7117 19.5933 5.25482 18.591 5.9449L16.0763 7.67635C15.4991 8.07377 15.4991 8.92624 16.0763 9.32365L18.591 11.0551C19.5933 11.7452 18.7267 13.2883 17.6158 12.7917L14.7112 11.4932C14.0868 11.214 13.3726 11.6301 13.3076 12.311L12.9955 15.5786C12.8802 16.7851 11.1198 16.7851 11.0045 15.5786L10.6924 12.311C10.6274 11.6301 9.91325 11.214 9.28881 11.4932L6.38421 12.7917C5.27332 13.2883 4.40672 11.7452 5.40898 11.0551L7.92373 9.32365C8.50094 8.92624 8.50094 8.07376 7.92373 7.67635L5.40898 5.9449C4.40672 5.25482 5.27332 3.71169 6.38421 4.20832L9.28881 5.50684C9.91325 5.78599 10.6274 5.3699 10.6924 4.689L11.0045 1.4214Z" fill="#307EEE"/>
</g>
<defs>
<filter id="filter0_d_1_62" x="0.967285" y="0.516479" width="22.0654" height="23.967" filterUnits="userSpaceOnUse" color-interpolation-filters="sRGB">
<feFlood flood-opacity="0" result="BackgroundImageFix"/>
<feColorMatrix in="SourceAlpha" type="matrix" values="0 0 0 0 0 0 0 0 0 0 0 0 0 0 0 0 0 0 127 0" result="hardAlpha"/>
<feOffset dy="4"/>
<feGaussianBlur stdDeviation="2"/>
<feComposite in2="hardAlpha" operator="out"/>
<feColorMatrix type="matrix" values="0 0 0 0 0 0 0 0 0 0 0 0 0 0 0 0 0 0 0.25 0"/>
<feBlend mode="normal" in2="BackgroundImageFix" result="effect1_dropShadow_1_62"/>
<feBlend mode="normal" in="SourceGraphic" in2="effect1_dropShadow_1_62" result="shape"/>
</filter>
</defs>
</svg>
