<svg width="31" height="22" viewBox="0 0 31 22" fill="none" xmlns="http://www.w3.org/2000/svg">
<path d="M0.0833435 21.051V2.27024C0.0833435 1.83914 0.314594 1.45022 0.777094 1.10347C1.23959 0.756719 1.77918 0.583344 2.39584 0.583344H28.6042C29.1951 0.583344 29.7283 0.756719 30.2037 1.10347C30.679 1.45022 30.9167 1.83914 30.9167 2.27024V16.89C30.9167 17.3211 30.679 17.71 30.2037 18.0567C29.7283 18.4035 29.1951 18.5769 28.6042 18.5769H6.25001L2.04897 21.6414C1.68925 21.9038 1.27171 21.9632 0.796364 21.8197C0.321017 21.6762 0.0833435 21.42 0.0833435 21.051ZM2.39584 18.9986L5.28647 16.89H28.6042V2.27024H2.39584V18.9986Z" fill="black"/>
</svg>
