<svg width="26" height="20" viewBox="0 0 26 20" fill="none" xmlns="http://www.w3.org/2000/svg">
<path d="M10.7328 9.05515C9.37737 9.05515 8.26836 8.64813 7.40581 7.8341C6.54325 7.02006 6.11197 5.97344 6.11197 4.69425C6.11197 3.41505 6.54325 2.36843 7.40581 1.5544C8.26836 0.740361 9.37737 0.333344 10.7328 0.333344C12.0883 0.333344 13.1973 0.740361 14.0598 1.5544C14.9224 2.36843 15.3537 3.41505 15.3537 4.69425C15.3537 5.97344 14.9224 7.02006 14.0598 7.8341C13.1973 8.64813 12.0883 9.05515 10.7328 9.05515ZM1.79917 18.3875C1.53219 18.3875 1.31141 18.3051 1.13685 18.1404C0.962283 17.9756 0.875 17.7673 0.875 17.5153V15.6546C0.875 14.9763 1.0547 14.3658 1.4141 13.8231C1.7735 13.2804 2.29206 12.8637 2.96979 12.5729C4.44846 11.9527 5.81931 11.5069 7.08235 11.2356C8.34538 10.9643 9.5622 10.8286 10.7328 10.8286H11.4414C11.3181 11.0999 11.2257 11.3664 11.1641 11.6281C11.1025 11.8897 11.0511 12.2047 11.0101 12.5729H10.7328C9.54167 12.5729 8.37618 12.6941 7.23637 12.9364C6.09656 13.1786 4.92081 13.5808 3.70912 14.1429C3.38053 14.2979 3.13408 14.516 2.96979 14.797C2.80549 15.078 2.72334 15.3639 2.72334 15.6546V16.6431H11.0101C11.1128 16.992 11.236 17.3069 11.3797 17.588C11.5235 17.869 11.6981 18.1355 11.9034 18.3875H1.79917ZM10.7328 7.31079C11.5338 7.31079 12.1961 7.06367 12.7198 6.56943C13.2435 6.0752 13.5053 5.45014 13.5053 4.69425C13.5053 3.93836 13.2435 3.31329 12.7198 2.81906C12.1961 2.32482 11.5338 2.0777 10.7328 2.0777C9.93187 2.0777 9.26955 2.32482 8.74585 2.81906C8.22216 3.31329 7.96031 3.93836 7.96031 4.69425C7.96031 5.45014 8.22216 6.0752 8.74585 6.56943C9.26955 7.06367 9.93187 7.31079 10.7328 7.31079ZM19.7897 16.1489C20.4674 16.1489 21.0476 15.9211 21.5302 15.4657C22.0128 15.0102 22.2541 14.4627 22.2541 13.8231C22.2541 13.1835 22.0128 12.6359 21.5302 12.1805C21.0476 11.725 20.4674 11.4973 19.7897 11.4973C19.112 11.4973 18.5318 11.725 18.0492 12.1805C17.5665 12.6359 17.3252 13.1835 17.3252 13.8231C17.3252 14.4627 17.5665 15.0102 18.0492 15.4657C18.5318 15.9211 19.112 16.1489 19.7897 16.1489ZM18.6499 17.7479C18.3008 17.651 17.9465 17.5105 17.5871 17.3263C17.2277 17.1422 16.9248 16.9338 16.6783 16.7013L15.3229 16.992C15.2202 17.0308 15.1175 17.0308 15.0148 16.992C14.9121 16.9532 14.8402 16.8854 14.7992 16.7885L14.3987 16.1198C14.3371 16.0423 14.3165 15.9551 14.3371 15.8582C14.3576 15.7612 14.409 15.674 14.4911 15.5965L15.6617 14.5499C15.6207 14.3754 15.6001 14.1332 15.6001 13.8231C15.6001 13.513 15.6207 13.2707 15.6617 13.0963L14.4911 12.0496C14.409 11.9721 14.3576 11.8849 14.3371 11.788C14.3165 11.6911 14.3371 11.6039 14.3987 11.5263L14.7992 10.8577C14.8402 10.7607 14.9121 10.6929 15.0148 10.6541C15.1175 10.6154 15.2202 10.6154 15.3229 10.6541L16.6783 10.9449C16.9248 10.7123 17.2277 10.5039 17.5871 10.3198C17.9465 10.1357 18.3008 9.99517 18.6499 9.89826L18.8963 8.3574C18.9169 8.24111 18.9682 8.14905 19.0504 8.08121C19.1325 8.01338 19.2352 7.97946 19.3584 7.97946H20.221C20.3442 7.97946 20.4469 8.01338 20.529 8.08121C20.6112 8.14905 20.6625 8.24111 20.6831 8.3574L20.9295 9.89826C21.2786 9.99517 21.6329 10.1357 21.9923 10.3198C22.3517 10.5039 22.6546 10.7123 22.9011 10.9449L24.2565 10.6541C24.3592 10.6154 24.4619 10.6154 24.5646 10.6541C24.6673 10.6929 24.7391 10.7607 24.7802 10.8577L25.1807 11.5263C25.2423 11.6039 25.2628 11.6911 25.2423 11.788C25.2218 11.8849 25.1704 11.9721 25.0883 12.0496L23.9177 13.0963C23.9587 13.2707 23.9793 13.513 23.9793 13.8231C23.9793 14.1332 23.9587 14.3754 23.9177 14.5499L25.0883 15.5965C25.1704 15.674 25.2218 15.7612 25.2423 15.8582C25.2628 15.9551 25.2423 16.0423 25.1807 16.1198L24.7802 16.7885C24.7391 16.8854 24.6673 16.9532 24.5646 16.992C24.4619 17.0308 24.3592 17.0308 24.2565 16.992L22.9011 16.7013C22.6546 16.9338 22.3517 17.1422 21.9923 17.3263C21.6329 17.5105 21.2786 17.651 20.9295 17.7479L20.6831 19.2887C20.6625 19.405 20.6112 19.4971 20.529 19.5649C20.4469 19.6328 20.3442 19.6667 20.221 19.6667H19.3584C19.2352 19.6667 19.1325 19.6328 19.0504 19.5649C18.9682 19.4971 18.9169 19.405 18.8963 19.2887L18.6499 17.7479Z" fill="black"/>
</svg>
