<svg width="24" height="22" viewBox="0 0 24 22" fill="none" xmlns="http://www.w3.org/2000/svg">
<path d="M0.954883 8.68996C0.670548 8.68996 0.435424 8.61067 0.249513 8.45207C0.0636013 8.29348 -0.0184185 8.10845 0.00345346 7.897C0.112813 6.7516 0.468232 5.66347 1.06971 4.63261C1.67119 3.60175 2.48592 2.68983 3.5139 1.89686C3.71075 1.75589 3.95134 1.68981 4.23567 1.69862C4.52001 1.70743 4.7606 1.79995 4.95745 1.97616C5.13242 2.13476 5.21444 2.31978 5.20351 2.53124C5.19257 2.7427 5.08868 2.92772 4.89183 3.08632C4.0607 3.73831 3.39907 4.47401 2.90695 5.29341C2.41484 6.11282 2.1141 6.98068 2.00474 7.897C1.96099 8.12608 1.8407 8.31551 1.64385 8.46529C1.447 8.61507 1.21735 8.68996 0.954883 8.68996ZM22.3785 8.68996C22.116 8.68996 21.8918 8.61507 21.7059 8.46529C21.52 8.31551 21.4052 8.12608 21.3614 7.897C21.252 6.98068 20.9568 6.11282 20.4756 5.29341C19.9944 4.47401 19.3492 3.73831 18.5399 3.08632C18.3431 2.92772 18.2392 2.7427 18.2283 2.53124C18.2173 2.31978 18.2993 2.13476 18.4743 1.97616C18.6712 1.79995 18.9063 1.70743 19.1797 1.69862C19.4531 1.68981 19.6882 1.7647 19.8851 1.9233C20.8912 2.73389 21.6895 3.6458 22.28 4.65904C22.8706 5.67228 23.2205 6.7516 23.3299 7.897C23.3518 8.10845 23.2697 8.29348 23.0838 8.45207C22.8979 8.61067 22.6628 8.68996 22.3785 8.68996ZM2.13597 18.3906C1.85163 18.3906 1.61651 18.3157 1.4306 18.1659C1.24469 18.0162 1.15173 17.8267 1.15173 17.5976C1.15173 17.3686 1.24469 17.1791 1.4306 17.0294C1.61651 16.8796 1.85163 16.8047 2.13597 16.8047H3.9076V8.7164C3.9076 7.27143 4.44893 5.96303 5.53159 4.7912C6.61425 3.61937 8.04139 2.88367 9.81302 2.5841V1.81757C9.81302 1.41227 9.99346 1.07746 10.3544 0.813141C10.7152 0.548818 11.1472 0.416656 11.6503 0.416656C12.1533 0.416656 12.5853 0.548818 12.9462 0.813141C13.3071 1.07746 13.4875 1.41227 13.4875 1.81757V2.5841C15.2591 2.88367 16.6917 3.61937 17.7853 4.7912C18.8789 5.96303 19.4257 7.27143 19.4257 8.7164V16.8047H21.1646C21.4489 16.8047 21.684 16.8796 21.8699 17.0294C22.0558 17.1791 22.1488 17.3686 22.1488 17.5976C22.1488 17.8267 22.0558 18.0162 21.8699 18.1659C21.684 18.3157 21.4489 18.3906 21.1646 18.3906H2.13597ZM11.6503 21.5625C10.9504 21.5625 10.3379 21.3554 9.81302 20.9413C9.28809 20.5272 9.02563 20.0294 9.02563 19.4479H14.2749C14.2749 20.0294 14.0179 20.5272 13.5039 20.9413C12.9899 21.3554 12.372 21.5625 11.6503 21.5625ZM5.87607 16.8047H17.4573V8.7164C17.4573 7.39478 16.8995 6.28022 15.7841 5.37271C14.6686 4.4652 13.3016 4.01145 11.6831 4.01145C10.0427 4.01145 8.66474 4.4652 7.54927 5.37271C6.43381 6.28022 5.87607 7.39478 5.87607 8.7164V16.8047Z" fill="black"/>
</svg>
