<svg width="300" height="704" viewBox="0 0 300 704" fill="none" xmlns="http://www.w3.org/2000/svg">
<g clip-path="url(#clip0_7_11)">
<path d="M240 704L214.969 684.444C190.313 664.889 139.688 625.778 109.969 586.667C79.6875 547.556 70.3125 508.444 75 469.333C79.6875 430.222 100.313 391.111 120 352C139.688 312.889 160.313 273.778 139.969 234.667C120 195.556 60 156.444 60 117.333C60 78.2222 120 39.1111 150 19.5556L180 -9.53674e-07H300L300 19.5556C300 39.1111 300 78.2222 300 117.333C300 156.444 300 195.556 300 234.667C300 273.778 300 312.889 300 352C300 391.111 300 430.222 300 469.333C300 508.444 300 547.556 300 586.667C300 625.778 300 664.889 300 684.444V704H240Z" fill="#A5B6FA"/>
</g>
<defs>
<clipPath id="clip0_7_11">
<rect width="704" height="300" fill="white" transform="matrix(0 -1 1 0 0 704)"/>
</clipPath>
</defs>
</svg>
