<svg width="1437" height="320" viewBox="0 0 1437 320" fill="none" xmlns="http://www.w3.org/2000/svg">
<g clip-path="url(#clip0_7_9)">
<path d="M0 192L15.9667 165.3C31.9333 139 63.8667 85 95.8 90.7C127.733 96 159.667 160 191.6 186.7C223.533 213 255.467 203 287.4 176C319.333 149 351.267 107 383.2 85.3C415.133 64 447.067 64 479 101.3C510.933 139 542.867 213 574.8 240C606.733 267 638.667 245 670.6 234.7C702.533 224 734.467 224 766.4 224C798.333 224 830.267 224 862.2 202.7C894.133 181 926.067 139 958 112C989.933 85 1021.87 75 1053.8 112C1085.73 149 1117.67 235 1149.6 266.7C1181.53 299 1213.47 277 1245.4 240C1277.33 203 1309.27 149 1341.2 106.7C1373.13 64 1405.07 32 1421.03 16L1437 0V320H1421.03C1405.07 320 1373.13 320 1341.2 320C1309.27 320 1277.33 320 1245.4 320C1213.47 320 1181.53 320 1149.6 320C1117.67 320 1085.73 320 1053.8 320C1021.87 320 989.933 320 958 320C926.067 320 894.133 320 862.2 320C830.267 320 798.333 320 766.4 320C734.467 320 702.533 320 670.6 320C638.667 320 606.733 320 574.8 320C542.867 320 510.933 320 479 320C447.067 320 415.133 320 383.2 320C351.267 320 319.333 320 287.4 320C255.467 320 223.533 320 191.6 320C159.667 320 127.733 320 95.8 320C63.8667 320 31.9333 320 15.9667 320H0V192Z" fill="#A5B6FA"/>
</g>
<defs>
<clipPath id="clip0_7_9">
<rect width="1437" height="320" fill="white"/>
</clipPath>
</defs>
</svg>
